<svg version="1.2" xmlns="http://www.w3.org/2000/svg" viewBox="0 0 53 53" width="53" height="53">
	<title>Forma 1</title>
	<style>
		.s0 { fill: #8c8c8c } 
	</style>
	<path id="Forma 1" class="s0" d="m51.2 47.2h-44.4v-44.4c0-0.4-0.4-0.8-0.8-0.8-0.5 0-0.8 0.4-0.8 0.8v6.7h-2.4c-0.4 0-0.8 0.4-0.8 0.8 0 0.5 0.4 0.8 0.8 0.8h2.4v6h-2.4c-0.4 0-0.8 0.3-0.8 0.8 0 0.4 0.4 0.8 0.8 0.8h2.4v5.9h-2.4c-0.4 0-0.8 0.4-0.8 0.8 0 0.4 0.4 0.8 0.8 0.8h2.4v5.9h-2.4c-0.4 0-0.8 0.4-0.8 0.8 0 0.5 0.4 0.8 0.8 0.8h2.4v6h-2.4c-0.4 0-0.8 0.3-0.8 0.8 0 0.4 0.4 0.8 0.8 0.8h2.4v6.7c0 0.5 0.3 0.8 0.8 0.8h11.8v2.4c0 0.4 0.3 0.8 0.8 0.8 0.4 0 0.8-0.4 0.8-0.8v-2.4h18.4v2.4c0 0.4 0.4 0.8 0.8 0.8 0.5 0 0.8-0.4 0.8-0.8v-2.4h11.8c0.4 0 0.8-0.3 0.8-0.8 0-0.4-0.4-0.8-0.8-0.8zm-41-1.6c0.5 0 0.8-0.3 0.8-0.8v-18.6h6.8v18.6c0 0.5 0.3 0.8 0.8 0.8 0.4 0 0.8-0.3 0.8-0.8v-11.1h6.3v11.1c0 0.5 0.3 0.8 0.8 0.8 0.4 0 0.8-0.3 0.8-0.8v-11.9c0-0.4-0.4-0.8-0.8-0.8h-7.1v-6.7c0-0.4-0.4-0.8-0.8-0.8h-8.4c-0.4 0-0.8 0.4-0.8 0.8v19.4c0 0.5 0.4 0.8 0.8 0.8zm20.5 0c0.5 0 0.8-0.3 0.8-0.8v-33.7h6.3v33.7c0 0.5 0.4 0.8 0.8 0.8 0.5 0 0.8-0.3 0.8-0.8v-26.1h6.7v26.1c0 0.5 0.4 0.8 0.8 0.8 0.5 0 0.8-0.3 0.8-0.8v-26.9c0-0.5-0.3-0.8-0.8-0.8h-7.5v-6.8c0-0.4-0.3-0.8-0.8-0.8h-7.9c-0.4 0-0.8 0.4-0.8 0.8v34.5c0 0.5 0.4 0.8 0.8 0.8z"/>
</svg>