<svg version="1.2" xmlns="http://www.w3.org/2000/svg" viewBox="0 0 30 30" width="30" height="30">
	<title>Forma 1 копия</title>
	<style>
		.s0 { fill: #eeeeee } 
		.s1 { fill: #888888 } 
	</style>
	<path id="Эллипс 2 копия 2" class="s0" d="m15 1c7.7 0 14 6.3 14 14 0 7.7-6.3 14-14 14-7.7 0-14-6.3-14-14 0-7.7 6.3-14 14-14z"/>
	<path id="Forma 1 копия" class="s1" d="m19.9 17.9q0.1 0.1 0.3 0.1 0.2 0 0.4-0.1l2.2-2.5q0.1-0.1 0.1-0.1 0 0 0 0 0-0.1 0.1-0.1-0.1 0 0 0 0 0 0-0.1 0 0 0-0.1 0 0 0-0.1 0 0 0 0 0-0.1 0-0.1-0.1 0-0.1-0.1 0 0 0 0 0 0-0.1 0l-2.2-2.5c-0.2-0.2-0.5-0.2-0.7 0-0.2 0.2-0.2 0.5 0 0.7l1.4 1.6h-7.6c-0.3 0-0.5 0.2-0.5 0.5 0 0.3 0.2 0.6 0.5 0.6h7.6l-1.4 1.5c-0.2 0.2-0.2 0.6 0 0.8zm-9.4 3.1h7c0.3 0 0.5-0.2 0.5-0.5v-3c0-0.3-0.2-0.5-0.5-0.5-0.2 0-0.4 0.2-0.4 0.5v2.4h-6.2v-9.8h6.2v2.4c0 0.3 0.2 0.5 0.4 0.5 0.3 0 0.5-0.2 0.5-0.5v-3c0-0.3-0.2-0.5-0.5-0.5h-7c-0.3 0-0.5 0.2-0.5 0.5v11c0 0.3 0.2 0.5 0.5 0.5z"/>
</svg>