<svg xmlns="http://www.w3.org/2000/svg" id="g" viewBox="0 0 583.91 113.39">
	<defs>	
		<style>.cls-1{fill:#e2001d;}.cls-2{fill:#65a469;}.cls-3{fill:#fff;}.cls-4{fill:#7cb47a;}</style>
	</defs>
		<title>Atlas Patient_logo-g_RGB</title>
	<path class="cls-1" d="M217,103.25H201.12l-2.36,5H188.68v-1.47l18.15-38.58h4.44l18.21,38.58v1.47H219.39Zm-8-19L204.47,94.6h9.22Z" transform="translate(-28.16 -28.64)"/>
	<path class="cls-1" d="M226.74,77.72v-9h30v9h-9.86v30.5h-10.2V77.72Z" transform="translate(-28.16 -28.64)"/>
	<path class="cls-1" d="M273,99.12H287.6v9.1h-25V68.68H273Z" transform="translate(-28.16 -28.64)"/>
	<path class="cls-1" d="M318.84,103.25h-15.9l-2.36,5H290.49v-1.47l18.15-38.58h4.44l18.21,38.58v1.47H321.21Zm-8-19L306.28,94.6h9.22Z" transform="translate(-28.16 -28.64)"/>
	<path class="cls-1" d="M355.34,96.58c0-2.77-3.35-3.39-7.38-3.61-8.76-.62-14.52-3.56-14.64-12.15-.34-17,31-17,30.78,0h-9.8c0-5.25-10.83-4.8-11.18-.11-.23,3,2.77,3.62,6.4,4,8,.85,15.85,2,15.85,11.92,0,16.6-32.85,16.88-32.62-.51h10C342.72,101.16,355.34,101.21,355.34,96.58Z" transform="translate(-28.16 -28.64)"/>
	<path class="cls-2" d="M379.37,108.22V68.68h17.75c19.31.06,19.31,29.43,0,29.43h-7.43v10.11Zm17.69-30.5c-2.42-.06-5,0-7.37,0V89h7.37C402.71,89,403.06,77.77,397.06,77.72Z" transform="translate(-28.16 -28.64)"/>
	<path class="cls-2" d="M438.51,103.25H422.6l-2.36,5H410.16v-1.47l18.15-38.58h4.44L451,106.75v1.47H440.87Zm-8-19L426,94.6h9.22Z" transform="translate(-28.16 -28.64)"/><path class="cls-2" d="M448.22,77.72v-9h30v9h-9.86v30.5h-10.2V77.72Z" transform="translate(-28.16 -28.64)"/>
	<path class="cls-2" d="M502.79,99.35v8.87H482.34V99.35h5.13V77.49h-4.73V68.68h19.65v8.81h-4.72V99.35Z" transform="translate(-28.16 -28.64)"/>
	<path class="cls-2" d="M534.75,77.72H519.82v5.59h13.72v9H519.82v6.95h15.45v9h-25.7V68.68h25.18Z" transform="translate(-28.16 -28.64)"/>
	<path class="cls-2" d="M553.18,88.79v19.43H542.52V68.51h3.75l20.4,19.54V68.68h10.55v39.59h-3.69Z" transform="translate(-28.16 -28.64)"/>
	<path class="cls-2" d="M582.1,77.72v-9h30v9h-9.85v30.5H592V77.72Z" transform="translate(-28.16 -28.64)"/>
	<path class="cls-2" d="M100.41,52c3.35-3.37,8.79-9,7.57-7.79,0,0,12.61-15.52,31-15.52,16.49,0,24.83,10.67,25.6,11.64A35.41,35.41,0,0,1,173,63.17c0,18.42-13.77,28.7-13.77,28.7L100.65,142,49.28,98.84S38,88.44,36.56,86.46c-8.16-11.41-8.24-21.78-8.24-21.78S64.33,88.22,100.41,52Z" transform="translate(-28.16 -28.64)"/>
	<rect class="cls-3" x="73.08" y="13.75" width="58.93" height="36.79" rx="4.14"/>
	<path class="cls-4" d="M156,43.26a3.28,3.28,0,0,1,3.27,3.27V75A3.28,3.28,0,0,1,156,78.31H105.38A3.28,3.28,0,0,1,102.11,75V46.53a3.28,3.28,0,0,1,3.27-3.27H156m0-1.74H105.38a5,5,0,0,0-5,5V75a5,5,0,0,0,5,5H156a5,5,0,0,0,5-5V46.53a5,5,0,0,0-5-5Z" transform="translate(-28.16 -28.64)"/><path class="cls-4" d="M151.57,60.53H109.89a.61.61,0,0,1,0-1.22h41.68a.61.61,0,0,1,0,1.22Z" transform="translate(-28.16 -28.64)"/><path class="cls-4" d="M151.53,66.9H109.85a.61.61,0,0,1-.62-.61.62.62,0,0,1,.62-.62h41.68a.62.62,0,0,1,.61.62A.61.61,0,0,1,151.53,66.9Z" transform="translate(-28.16 -28.64)"/><path class="cls-4" d="M142.55,53.7H118.87a.87.87,0,1,1,0-1.73h23.68a.87.87,0,1,1,0,1.73Z" transform="translate(-28.16 -28.64)"/><path class="cls-4" d="M100.71,51.36C97.36,48,91.92,43,93.13,44.16c0,0-12.61-15.52-31-15.52A32.62,32.62,0,0,0,36.5,40.28a35.41,35.41,0,0,0-8.34,22.89,36.87,36.87,0,0,0,9.13,24.41c1,1.21,12,11.38,12,11.38L100.63,142l50.24-43.19S161.29,90.07,164,87.11c6.89-7.69,8.6-18.51,8.6-18.51S136.79,87.63,100.71,51.36Z" transform="translate(-28.16 -28.64)"/><path class="cls-1" d="M57.93,84.59a2.44,2.44,0,0,1-2.44-2.44V72.7a.71.71,0,0,0-.71-.71H45.33a2.44,2.44,0,0,1-2.44-2.44V60.1a2.45,2.45,0,0,1,2.44-2.45h9.45a.7.7,0,0,0,.71-.7V47.5a2.45,2.45,0,0,1,2.44-2.45h9.45a2.45,2.45,0,0,1,2.44,2.45V57a.7.7,0,0,0,.71.7H80a2.45,2.45,0,0,1,2.44,2.45v9.45A2.44,2.44,0,0,1,80,72H70.53a.71.71,0,0,0-.71.71v9.45a2.44,2.44,0,0,1-2.44,2.44Z" transform="translate(-28.16 -28.64)"/><path class="cls-3" d="M67.38,45.92A1.58,1.58,0,0,1,69,47.5V57a1.57,1.57,0,0,0,1.57,1.57H80a1.58,1.58,0,0,1,1.58,1.58v9.45A1.57,1.57,0,0,1,80,71.12H70.53A1.57,1.57,0,0,0,69,72.7v9.45a1.57,1.57,0,0,1-1.58,1.57H57.93a1.57,1.57,0,0,1-1.57-1.57V72.7a1.58,1.58,0,0,0-1.58-1.58H45.33a1.57,1.57,0,0,1-1.57-1.57V60.1a1.57,1.57,0,0,1,1.57-1.58h9.45A1.57,1.57,0,0,0,56.36,57V47.5a1.57,1.57,0,0,1,1.57-1.58h9.45m0-1.74H57.93a3.32,3.32,0,0,0-3.31,3.32v9.28H45.33A3.32,3.32,0,0,0,42,60.1v9.45a3.31,3.31,0,0,0,3.31,3.31h9.29v9.29a3.31,3.31,0,0,0,3.31,3.31h9.45a3.31,3.31,0,0,0,3.31-3.31V72.86H80a3.31,3.31,0,0,0,3.31-3.31V60.1A3.32,3.32,0,0,0,80,56.78H70.69V47.5a3.32,3.32,0,0,0-3.31-3.32Z" transform="translate(-28.16 -28.64)"/>
</svg>