<svg version="1.2" xmlns="http://www.w3.org/2000/svg" viewBox="0 0 53 53" width="53" height="53">
	<title>Forma 1</title>
	<style>
		.s0 { fill: #8c8c8c } 
	</style>
	<path id="Forma 1" fill-rule="evenodd" class="s0" d="m37.4 23.3c0 0.5-0.4 0.9-0.8 0.9-0.5 0-0.9-0.4-0.9-0.9 0-0.4 0.4-0.8 0.9-0.8 0.4 0 0.8 0.4 0.8 0.8zm-19.1 17.2c0 0.5-0.4 0.9-0.8 0.9-0.5 0-0.8-0.4-0.8-0.9 0-0.4 0.3-0.8 0.8-0.8 0.4 0 0.8 0.4 0.8 0.8zm-8.1-17.2c0 0.5-0.4 0.9-0.9 0.9-0.4 0-0.8-0.4-0.8-0.9 0-0.4 0.4-0.8 0.8-0.8 0.5 0 0.9 0.4 0.9 0.8zm36.9 0.1c0 0.4-0.3 0.8-0.8 0.8h-6.5c-0.4 0-0.8-0.4-0.8-0.8 0-0.5 0.4-0.8 0.8-0.8h6.5c0.5 0 0.8 0.3 0.8 0.8zm4.9 5.2q0 0 0 0v9.5c0 1.8-1.5 3.3-3.3 3.3h-6.5v9.8c0 0.4-0.3 0.8-0.8 0.8h-28.8c-0.5 0-0.8-0.4-0.8-0.8v-9.8h-6.5c-1.8 0-3.3-1.5-3.3-3.3v-15.6c0-1.7 1.5-3.2 3.3-3.2h3.2v-8.4c0-1.3 1.1-2.4 2.5-2.4h0.8c0-0.3 0.1-0.5 0.3-0.7l5.6-5.6q0 0 0 0 0 0 0.1 0 0 0 0 0 0-0.1 0.1-0.1 0 0 0 0 0 0 0.1 0 0-0.1 0-0.1 0.1 0 0.1 0 0 0 0 0 0.1 0 0.1 0 0 0 0 0 0.1 0 0.1 0h23.1c0.5 0 0.8 0.4 0.8 0.8v5.7h0.8c1.4 0 2.5 1.1 2.5 2.4v8.4h3.2c1.8 0 3.3 1.5 3.3 3.2v6.1q0 0 0 0zm-9.8-9.3h1.7v-8.4c0-0.4-0.4-0.8-0.9-0.8h-0.8zm-27.6-11.6h2.9v-2.9zm-1.2 11.6h27.2v-15.6h-21.5v4.8c0 0.5-0.4 0.8-0.8 0.8h-4.9q0 0.1 0 0.2zm-3.3 0h1.7v-9.1h-0.8c-0.5 0-0.9 0.3-0.9 0.8zm-6.5 8.5h46.8v-5.3c0-0.9-0.8-1.6-1.7-1.6h-43.4c-0.9 0-1.7 0.7-1.7 1.6zm37 8.7h-27.2v13.9h27.2zm9.8-7.1h-46.8v8.7c0 0.9 0.8 1.6 1.7 1.6h6.5v-3.2h-1.7c-0.4 0-0.8-0.4-0.8-0.8 0-0.5 0.4-0.8 0.8-0.8h33.7c0.5 0 0.9 0.3 0.9 0.8 0 0.4-0.4 0.8-0.9 0.8h-1.6v3.2h6.5c0.9 0 1.7-0.7 1.7-1.6zm-13 14.4c0 0.4-0.4 0.8-0.9 0.8h-19c-0.5 0-0.8-0.4-0.8-0.8 0-0.5 0.3-0.8 0.8-0.8h19c0.5 0 0.9 0.3 0.9 0.8zm0-3.3c0 0.5-0.4 0.8-0.9 0.8h-15.8c-0.4 0-0.8-0.3-0.8-0.8 0-0.4 0.4-0.8 0.8-0.8h15.8c0.5 0 0.9 0.4 0.9 0.8z"/>
</svg>