<svg version="1.2" xmlns="http://www.w3.org/2000/svg" viewBox="0 0 42 53" width="42" height="53">
	<title>Forma 1 копия 2</title>
	<style>
		.s0 { fill: #ffffff } 
	</style>
	<path id="Forma 1 копия 2" fill-rule="evenodd" class="s0" d="m38.4 41.9v-32.7c0-1.3-1-2.4-2.3-2.4h-25.5v5.6c0 1.3-1.1 2.4-2.4 2.4-1.3 0-2.3-1.1-2.3-2.4v-3.2h1.6v3.2c0 0.4 0.3 0.8 0.7 0.8 0.5 0 0.8-0.4 0.8-0.8v-5.6h-3.1c-1.3 0-2.3 1.1-2.3 2.4v38.8c0 1.3 1 2.4 2.3 2.4h30.2c1.3 0 2.3-1.1 2.3-2.4v-3.2h1.6v3.2c0 2.2-1.7 4-3.9 4h-30.2c-2.2 0-3.9-1.8-3.9-4v-38.8c0-2.2 1.7-4 3.9-4v-0.8c0-1.3 1-2.4 2.3-2.4q0.2 0 0.4 0c1.2 0.3 2 1.3 2 2.5v0.7h25.5c2.2 0 3.9 1.8 3.9 4v32.7zm-29.4-37.4c0-0.4-0.3-0.8-0.7-0.9-0.2 0-0.4 0-0.6 0.2-0.2 0.1-0.3 0.4-0.3 0.6v0.8h1.6zm27.8 8.7v26h-1.5v-26c0-1.3-1.1-2.4-2.4-2.4h-19.3v-1.6h19.3c2.2 0 3.9 1.8 3.9 4zm-27.8 35.6c-2.2 0-3.9-1.8-3.9-4v-26.9h1.5v26.9c0 1.3 1.1 2.4 2.4 2.4h21.6v-2.4c0-1.3 1.1-2.4 2.3-2.4h0.8v1.6h-0.8c-0.4 0-0.7 0.4-0.7 0.8v1.3l3.1-3.2v-1.3h1.5v1.6q0 0.4-0.2 0.6l-4.7 4.8q-0.2 0.2-0.5 0.2zm16.6-26.7q-0.1 0.1-0.2 0.2l-3.9 3.7q-0.2 0.2-0.5 0.2-0.3 0-0.6-0.2l-3.8-3.7c-1.3-1.1-1.5-3.1-0.3-4.5q0.1-0.1 0.3-0.3c1.2-1.1 3-1.2 4.4-0.4 1.4-0.8 3.1-0.7 4.4 0.4 1.3 1.2 1.4 3.2 0.2 4.6zm-1.1-3.2q-0.1-0.1-0.2-0.2c-0.8-0.7-2-0.7-2.8 0-0.3 0.3-0.8 0.3-1.1 0-0.3-0.3-0.9-0.5-1.4-0.5-0.5 0-1 0.2-1.4 0.5-0.6 0.6-0.7 1.6-0.2 2.3q0.1 0.1 0.2 0.2l3.4 3.1 3.3-3.1c0.7-0.6 0.8-1.6 0.2-2.3zm-12 16.5h12.3v1.6h-12.3zm0-4h17.7v1.6h-17.7zm0 8h12.3v1.6h-12.3z"/>
</svg>