<svg version="1.2" xmlns="http://www.w3.org/2000/svg" viewBox="0 0 30 30" width="30" height="30">
	<title>Shape 1 копия</title>
	<style>
		.s0 { fill: #eeeeee } 
		.s1 { fill: #888888 } 
	</style>
	<path id="Эллипс 2 копия 3" class="s0" d="m15 1c7.7 0 14 6.3 14 14 0 7.7-6.3 14-14 14-7.7 0-14-6.3-14-14 0-7.7 6.3-14 14-14z"/>
	<path id="Shape 1 копия" fill-rule="evenodd" class="s1" d="m20 19.9v0.6c0 0.3-0.2 0.5-0.5 0.5-0.2 0-0.4-0.2-0.4-0.5v-0.6c0-1.4-1.5-2.6-4.1-2.6-2.6 0-4.1 1.2-4.1 2.6v0.6c0 0.3-0.2 0.5-0.4 0.5-0.3 0-0.5-0.2-0.5-0.5v-0.6c0-2 1.8-3.5 5-3.5 3.2 0 5 1.5 5 3.5zm-4.6-5.1q-0.2 0-0.4 0c-0.6 0-1.2-0.2-1.6-0.5-0.6-0.5-1-1.2-1.1-2-0.3-1.6 0.8-3.1 2.3-3.3q0.4-0.1 0.8 0c0.6 0.1 1.2 0.4 1.6 0.8 0.4 0.5 0.7 1.1 0.8 1.7 0.2 1.6-0.8 3.1-2.4 3.3zm1.5-3.2c-0.1-0.8-0.8-1.5-1.6-1.6q-0.1-0.1-0.3-0.1-0.1 0-0.2 0.1c-1.1 0.1-1.8 1.1-1.6 2.2 0 0.5 0.3 1 0.7 1.3 0.4 0.3 0.9 0.4 1.4 0.4 1-0.2 1.7-1.2 1.6-2.3z"/>
</svg>