<svg version="1.2" xmlns="http://www.w3.org/2000/svg" viewBox="0 0 23 25" width="23" height="25">
	<title>Shape 1</title>
	<style>
		.s0 { fill: #8c8c8c } 
	</style>
	<path id="Shape 1" fill-rule="evenodd" class="s0" d="m22 7.6c0 0.2-0.2 0.3-0.3 0.3h-0.4v9.7c0 1.2-1 2.2-2.2 2.2-1.3 0-2.3-1-2.3-2.2v-9.7h-4.5v13.9h2.7c1 0 1.8 0.8 1.8 1.8 0 0.2-0.2 0.4-0.3 0.4h-9c-0.2 0-0.3-0.2-0.3-0.4 0-1 0.8-1.8 1.8-1.8h2.7v-13.9h-4.5v9.7c0 1.2-1 2.2-2.3 2.2-1.2 0-2.2-1-2.2-2.2v-9.7h-0.4c-0.1 0-0.3-0.1-0.3-0.3 0-0.2 0.2-0.4 0.3-0.4h0.4v-3.1c-0.4-0.1-0.7-0.5-0.7-1 0-0.6 0.5-1.1 1.1-1.1h3.7c0.6 0 1.1 0.5 1.1 1.1 0 0.5-0.3 0.9-0.7 1v3.1h9.6v-3.1c-0.4-0.1-0.7-0.5-0.7-1 0-0.6 0.5-1.1 1.1-1.1h3.7c0.6 0 1.1 0.5 1.1 1.1 0 0.5-0.3 0.9-0.7 1v3.1h0.4c0.1 0 0.3 0.2 0.3 0.4zm-19.3-4.5c0 0.2 0.2 0.4 0.4 0.4h3.7c0.2 0 0.4-0.2 0.4-0.4 0-0.2-0.2-0.4-0.4-0.4h-3.7c-0.2 0-0.4 0.2-0.4 0.4zm0.7 4.1h3.1v-3h-3.1zm3.1 10.4v-7.1q-0.3-0.1-0.5-0.2c-0.1-0.1-0.2-0.2-0.4-0.2-0.2 0-0.3 0.1-0.5 0.2-0.1 0.1-0.4 0.2-0.8 0.2-0.4 0-0.6-0.1-0.8-0.2q0-0.1-0.1-0.1v7.4c0 0.8 0.7 1.5 1.5 1.5 0.9 0 1.6-0.7 1.6-1.5zm0-7.9v-1.8h-3.1v1.6q0.3 0 0.5 0.2c0.1 0 0.2 0.1 0.4 0.1 0.2 0 0.3-0.1 0.5-0.1 0.1-0.1 0.4-0.3 0.8-0.3 0.4 0 0.6 0.2 0.8 0.3q0 0 0.1 0zm8.5 12.8h-6c-0.5 0-0.9 0.3-1.1 0.8h8.2c-0.2-0.5-0.6-0.8-1.1-0.8zm1.8-19.4c0 0.2 0.2 0.4 0.4 0.4h3.7c0.2 0 0.4-0.2 0.4-0.4 0-0.3-0.2-0.4-0.4-0.4h-3.7c-0.2 0-0.4 0.1-0.4 0.4zm0.7 4.1h3.1v-3h-3.1zm3.1 10.4v-7.2q-0.3-0.1-0.5-0.2c-0.1-0.1-0.2-0.1-0.4-0.1-0.2 0-0.3 0-0.5 0.1-0.1 0.1-0.4 0.3-0.8 0.3-0.4 0-0.6-0.2-0.8-0.3q0 0-0.1 0v7.4c0 0.8 0.7 1.5 1.6 1.5 0.8 0 1.5-0.7 1.5-1.5zm0-7.9v-1.8h-3.1v1.5q0.3 0.1 0.5 0.2c0.1 0.1 0.2 0.2 0.4 0.2 0.2 0 0.3-0.1 0.5-0.2 0.1-0.1 0.4-0.2 0.8-0.2 0.4 0 0.6 0.1 0.8 0.2q0 0.1 0.1 0.1zm-15 1.7q0.1 0.1 0.1 0.2 0 0.1-0.1 0.3-0.1 0.1-0.3 0.1-0.1 0-0.2-0.1-0.1-0.2-0.1-0.3 0-0.1 0.1-0.2 0.1-0.1 0.2-0.1 0.2 0 0.3 0.1zm-1.1 1.1q0.1 0.1 0.1 0.2 0 0.2-0.1 0.3-0.2 0.1-0.3 0.1-0.1 0-0.2-0.1-0.1-0.1-0.1-0.3 0-0.1 0.1-0.2 0.1-0.1 0.2-0.1 0.1 0 0.3 0.1zm15.2-0.8q0.1 0.1 0.1 0.3 0 0.1-0.1 0.2-0.1 0.1-0.3 0.1-0.1 0-0.2-0.1-0.1-0.1-0.1-0.2 0-0.2 0.1-0.3 0.1-0.1 0.2-0.1 0.2 0 0.3 0.1zm-0.8 1.5q0.1 0.1 0.1 0.3 0 0.1-0.1 0.2-0.1 0.1-0.2 0.1-0.2 0-0.3-0.1-0.1-0.1-0.1-0.2 0-0.2 0.1-0.3 0.1-0.1 0.3-0.1 0.1 0 0.2 0.1zm0.8 1.9q0.1 0.1 0.1 0.2 0 0.2-0.1 0.3-0.1 0.1-0.3 0.1-0.1 0-0.2-0.1-0.1-0.1-0.1-0.3 0-0.1 0.1-0.2 0.1-0.1 0.2-0.1 0.2 0 0.3 0.1zm-14.1-1.5q0.1 0.1 0.1 0.2 0 0.2-0.1 0.3-0.1 0.1-0.3 0.1-0.1 0-0.2-0.1-0.1-0.1-0.1-0.3 0-0.1 0.1-0.2 0.1-0.1 0.2-0.1 0.2 0 0.3 0.1z"/>
</svg>