<svg version="1.2" xmlns="http://www.w3.org/2000/svg" viewBox="0 0 27 27" width="27" height="27">
	<title>Forma 1</title>
	<style>
		.s0 { fill: #8c8c8c } 
	</style>
	<path id="Forma 1" fill-rule="evenodd" class="s0" d="m15.6 5.6v5.6c0 3.8-3 6.8-6.8 6.8-3.8 0-6.8-3-6.8-6.8v-5.6c0-1.5 1.3-2.8 2.8-2.8h0.4v-0.8h1.2c0.7 0 1.2 0.5 1.2 1.2 0 0.7-0.5 1.2-1.2 1.2h-1.2v-0.8h-0.4c-1.1 0-2 0.9-2 2v5.6c0 3.3 2.7 6 6 6 3.3 0 6-2.7 6-6v-5.6c0-1.1-0.9-2-2-2h-0.4v0.8h-1.2c-0.7 0-1.2-0.5-1.2-1.2 0-0.7 0.5-1.2 1.2-1.2h1.2v0.8h0.4c1.5 0 2.8 1.3 2.8 2.8zm-4-2.8h-0.4c-0.2 0-0.4 0.2-0.4 0.4 0 0.2 0.2 0.4 0.4 0.4h0.4zm-5.6 0.8h0.4c0.2 0 0.4-0.2 0.4-0.4 0-0.2-0.2-0.4-0.4-0.4h-0.4zm16.4 6.4v10.4c0 1.1-0.9 2-2 2-1.1 0-2-0.9-2-2v-2.2c0-0.8-0.6-1.4-1.4-1.4-0.8 0-1.4 0.6-1.4 1.4v4.2c0 2-1.6 3.6-3.6 3.6-2 0-3.6-1.6-3.6-3.6v-4.4h0.8v4.4c0 1.5 1.3 2.8 2.8 2.8 1.5 0 2.8-1.3 2.8-2.8v-4.2c0-1.2 1-2.2 2.2-2.2 1.2 0 2.2 1 2.2 2.2v2.2c0 0.7 0.5 1.2 1.2 1.2 0.7 0 1.2-0.5 1.2-1.2v-10.4zm3.6-4c0 2.2-1.8 4-4 4-2.2 0-4-1.8-4-4 0-2.2 1.8-4 4-4 2.2 0 4 1.8 4 4zm-0.8 0c0-1.8-1.4-3.2-3.2-3.2-1.8 0-3.2 1.4-3.2 3.2 0 1.8 1.4 3.2 3.2 3.2 1.8 0 3.2-1.4 3.2-3.2zm-1.6 0c0 0.9-0.7 1.6-1.6 1.6-0.9 0-1.6-0.7-1.6-1.6 0-0.9 0.7-1.6 1.6-1.6 0.9 0 1.6 0.7 1.6 1.6zm-0.8 0c0-0.4-0.4-0.8-0.8-0.8-0.4 0-0.8 0.4-0.8 0.8 0 0.4 0.4 0.8 0.8 0.8 0.4 0 0.8-0.4 0.8-0.8z"/>
</svg>