<svg version="1.2" xmlns="http://www.w3.org/2000/svg" viewBox="0 0 31 23" width="31" height="23">
	<title>Forma 1</title>
	<style>
		.s0 { fill: #8c8c8c } 
	</style>
	<path id="Forma 1" fill-rule="evenodd" class="s0" d="m29.5 11.6h-2.3c0.9-2.2 0.8-4 0.5-5.2-0.7-2.1-2.8-4.4-6-4.4q-1.3 0-2.6 0.5c-1.5 0.5-2.5 1.1-3 1.4-0.4-0.3-1.4-0.9-3-1.4q-1.3-0.5-2.6-0.5c-3.2 0-5.3 2.3-5.9 4.4-0.4 1.3-0.6 3.2 0.7 5.7h-2.9c-0.2 0-0.4 0.1-0.4 0.4 0 0.2 0.2 0.4 0.4 0.4h3.4q0.2 0.3 0.5 0.7c2.8 3.9 8.8 8.1 9.9 8.4q0 0 0 0 0.1 0 0.1 0v-0.1c0.9-0.4 6.7-4 9.7-8.3q0.5-0.6 0.8-1.2h2.8c0.2 0 0.4-0.2 0.4-0.4 0-0.3-0.2-0.4-0.5-0.4zm-4.2 1.5c-2.9 4-8 7.3-9.2 8-1.1-0.7-6.3-4-9.1-8q-0.1-0.1-0.2-0.2h3.9c0.2 0 0.3-0.1 0.4-0.3l1.8-3.4 2.8 7c0.1 0.2 0.2 0.3 0.4 0.3q0 0 0 0c0.2 0 0.4-0.2 0.4-0.3l2.5-8.2 1.3 4.1q0.1 0.2 0.3 0.3c0.2 0 0.4-0.1 0.5-0.2l1-1.5 0.9 1.5q0.1 0.2 0.3 0.2h2.4q-0.2 0.4-0.4 0.7zm0.9-1.5h-2.6l-1.1-1.8q-0.1-0.2-0.4-0.2-0.2 0-0.3 0.1l-0.9 1.3-1.5-4.6c0-0.2-0.2-0.3-0.4-0.3-0.2 0-0.4 0.1-0.4 0.3l-2.5 8.3-2.7-6.7c-0.1-0.1-0.2-0.2-0.4-0.2q-0.3 0-0.4 0.2l-2.1 4h-4.2c-1.1-1.9-1.4-3.7-0.9-5.3 0.6-1.9 2.4-3.8 5.2-3.8q1.1 0 2.3 0.4c1.9 0.7 2.9 1.5 3 1.5 0.1 0.1 0.3 0.1 0.5 0 0 0 1-0.8 3-1.5q1.2-0.5 2.3-0.4c2.7 0 4.6 1.9 5.2 3.8 0.4 1.5 0.2 3.1-0.7 4.9z"/>
</svg>