<svg version="1.2" xmlns="http://www.w3.org/2000/svg" viewBox="0 0 15 14" width="15" height="14">
	<title>Shape 1 копия 4</title>
	<style>
		.s0 { fill: #ffffff } 
	</style>
	<path id="Shape 1 копия 4" class="s0" d="m13.1 2h-10.2c-0.5 0-0.9 0.4-0.9 0.8 0 0.5 0.4 0.9 0.9 0.9h10.2c0.5 0 0.9-0.4 0.9-0.9 0-0.4-0.4-0.8-0.9-0.8zm0 4.2h-10.2c-0.5 0-0.9 0.3-0.9 0.8 0 0.5 0.4 0.8 0.9 0.8h10.2c0.5 0 0.9-0.3 0.9-0.8 0-0.5-0.4-0.8-0.9-0.8zm0 4.1h-10.2c-0.5 0-0.9 0.4-0.9 0.9 0 0.4 0.4 0.8 0.9 0.8h10.2c0.5 0 0.9-0.4 0.9-0.8 0-0.5-0.4-0.9-0.9-0.9z"/>
</svg>