<svg version="1.2" xmlns="http://www.w3.org/2000/svg" viewBox="0 0 27 24" width="27" height="24">
	<title>Forma 1</title>
	<style>
		.s0 { fill: #8c8c8c } 
	</style>
	<path id="Forma 1" fill-rule="evenodd" class="s0" d="m24.2 19.4h-9.8v2.9h4.2c0.2 0 0.4 0.1 0.4 0.3 0 0.2-0.2 0.4-0.4 0.4h-9.2c-0.2 0-0.4-0.2-0.4-0.4 0-0.2 0.2-0.3 0.4-0.3h4.2v-2.9h-9.8c-1 0-1.8-0.8-1.8-1.8v-14.7c0-1.1 0.8-1.9 1.8-1.9h20.4c1 0 1.8 0.8 1.8 1.9v14.7c0 1-0.8 1.8-1.8 1.8zm-20.4-17.7c-0.6 0-1.1 0.5-1.1 1.2v14.7c0 0.6 0.5 1.1 1.1 1.1h20.4c0.6 0 1.1-0.5 1.1-1.1v-14.7c0-0.7-0.5-1.2-1.1-1.2zm9.2 9.2v4.7c0 0.7-0.5 1.3-1.1 1.3h-2.6c-1 0-1.9-0.5-2.4-1.3-0.5-0.7-0.7-1.8-0.7-3 0-1.8 0.6-4 1.5-5.7 1.2-1.9 2.7-3 4.2-3 0.6 0 1.1 0.6 1.1 1.3v1.3c0 0.2-0.2 0.4-0.4 0.4-0.2 0-0.4-0.2-0.4-0.4v-1.3c0-0.3-0.1-0.5-0.3-0.5-1.7 0-2.9 1.7-3.4 2.7-0.9 1.5-1.5 3.5-1.5 5.2 0 1.1 0.2 1.9 0.6 2.5q0.6 0.9 1.7 1h2.6c0.2 0 0.3-0.2 0.3-0.5v-4.7c0-0.2 0.2-0.4 0.4-0.4 0.2 0 0.4 0.2 0.4 0.4zm8.8 1.7c0 1.2-0.3 2.3-0.7 3-0.6 0.8-1.4 1.3-2.5 1.3h-2.6c-0.6 0-1.1-0.6-1.1-1.3v-4.8c0-0.2 0.2-0.4 0.4-0.4 0.2 0 0.4 0.2 0.4 0.4v4.8c0 0.3 0.2 0.5 0.3 0.5h2.6q1.2-0.1 1.7-1c0.4-0.6 0.6-1.4 0.6-2.5 0-1.7-0.5-3.7-1.4-5.2-0.6-1-1.8-2.7-3.5-2.7-0.1 0-0.3 0.2-0.3 0.5v1.3c0 0.2-0.2 0.4-0.4 0.4-0.2 0-0.4-0.2-0.4-0.4v-1.3c0-0.7 0.5-1.3 1.1-1.3 1.6 0 3.1 1.1 4.2 3 1 1.7 1.6 3.9 1.6 5.7zm-5.5-0.6v-1.7l-2.3-2.5-2.4 2.5v1.7c0 0.2-0.2 0.4-0.4 0.4-0.2 0-0.4-0.2-0.4-0.4v-1.2l-1.1 0.5c-0.2 0.1-0.5 0-0.6-0.2-0.1-0.2 0-0.4 0.2-0.5l1.7-0.8 2.5-2.8v-3.1c0-0.3 0.2-0.5 0.5-0.5 0.2 0 0.4 0.2 0.4 0.5v3.1l2.6 2.8 1.6 0.8c0.2 0.1 0.3 0.3 0.2 0.5-0.1 0.2-0.4 0.3-0.6 0.2l-1.1-0.5v1.2c0 0.2-0.2 0.4-0.4 0.4-0.2 0-0.4-0.2-0.4-0.4z"/>
</svg>