<svg version="1.2" xmlns="http://www.w3.org/2000/svg" viewBox="0 0 27 24" width="27" height="24">
	<title>Эллипс 2 копия</title>
	<style>
		.s0 { fill: #8c8c8c } 
	</style>
	<path id="Эллипс 2 копия" fill-rule="evenodd" class="s0" d="m24.2 19.4h-9.8v2.9h4.2c0.2 0 0.4 0.1 0.4 0.3 0 0.2-0.2 0.4-0.4 0.4h-9.2c-0.2 0-0.4-0.2-0.4-0.4 0-0.2 0.2-0.3 0.4-0.3h4.2v-2.9h-9.8c-1 0-1.8-0.8-1.8-1.8v-14.7c0-1.1 0.8-1.9 1.8-1.9h20.4c1 0 1.8 0.8 1.8 1.9v14.7c0 1-0.8 1.8-1.8 1.8zm-20.4-17.7c-0.6 0-1.1 0.5-1.1 1.2v14.7c0 0.6 0.5 1.1 1.1 1.1h20.4c0.6 0 1.1-0.5 1.1-1.1v-14.7c0-0.7-0.5-1.2-1.1-1.2zm10.2 4.3c1.3 0 3.6-0.7 3.6-0.7 0 0 3.5 6.3 3.6 6.3-1.3 2-4.1 3.5-7.2 3.5-3.2 0-5.9-1.5-7.2-3.5 0-0.1 3.6-6.3 3.6-6.3 0 0 2.3 0.7 3.6 0.7zm-3.3 0c0 0-3.2 5.3-3.2 5.4 1.2 1.7 3.6 3 6.5 3 2.8 0 5.3-1.3 6.5-3-0.1 0-3.3-5.4-3.3-5.4 0 0-2.1 0.6-3.2 0.6-1.2 0-3.3-0.6-3.3-0.6z"/>
</svg>